<svg role="img" xmlns="http://www.w3.org/2000/svg" viewBox="0 0 26 26"><title>NTS Radio</title><path d="M 20.900391 4.5996094 C 19.400391 4.5996094 18.4 5.4 18 7 L 17.599609 9 C 17.499609 9.9 17.600781 10.399609 17.800781 11.099609 L 19.099609 14.900391 C 19.299609 15.400391 19.299219 16 19.199219 16.5 L 18.699219 18.800781 C 18.499219 19.500781 18.1 20 17.5 20 C 16.8 20 16.600781 19.600781 16.800781 18.800781 L 17.300781 16.699219 L 15.800781 16.699219 L 15.300781 18.900391 C 14.900781 20.600391 15.599219 21.300781 17.199219 21.300781 C 18.599219 21.300781 19.699609 20.400391 20.099609 18.900391 L 20.699219 16.300781 C 20.899219 15.600781 20.799609 14.900781 20.599609 14.300781 L 19.199219 10.199219 C 19.099219 9.6992188 19.099219 9.1992188 19.199219 8.6992188 L 19.599609 7 C 19.699609 6.4 19.999219 5.9003906 20.699219 5.9003906 C 21.399219 5.9003906 21.400781 6.4 21.300781 7 L 20.800781 9 L 22.300781 9 L 22.699219 6.9003906 C 23.099219 5.4003906 22.600391 4.5996094 20.900391 4.5996094 z M 11.199219 4.6992188 L 8 18.699219 L 9.4003906 4.8007812 L 7.1992188 4.8007812 L 3.5 21.099609 L 4.8007812 21.099609 L 8.0996094 6.5996094 L 6.6992188 21.099609 L 8.8007812 21.099609 L 12.5 4.6992188 L 11.199219 4.6992188 z M 13.300781 4.6992188 L 13 6 L 14.599609 6 L 11.199219 21.099609 L 12.699219 21.099609 L 16.099609 6 L 17.800781 6 L 18.099609 4.6992188 L 13.300781 4.6992188 z "></path></svg>
