<?xml version="1.0" encoding="UTF-8" standalone="no"?>
<svg
   width="32"
   height="32"
   viewBox="0 0 8.467 8.467"
   fill="currentColor"
   version="1.1"
   id="svg51"
   xmlns:xlink="http://www.w3.org/1999/xlink"
   xmlns="http://www.w3.org/2000/svg"
   xmlns:svg="http://www.w3.org/2000/svg">
  <defs
     id="defs55">
    <clipPath
       clipPathUnits="userSpaceOnUse"
       id="clipPath6439">
      <path
         d="M 1.059,0 C 0.47200001,0 0,0.47200001 0,1.058 v 6.35 c 0,0.586 0.47200001,1.0580001 1.058,1.0580001 h 6.35 C 7.994,8.4660001 8.4660001,7.994 8.4660001,7.408 V 1.058 C 8.467,0.47200001 7.9949999,0 7.4089999,0 Z"
         fill-rule="evenodd"
         id="path6441"
         style="opacity:0.334956;stroke-width:1" />
    </clipPath>
    <clipPath
       clipPathUnits="userSpaceOnUse"
       id="clipPath7780">
      <path
         d="M 3.0689996,2.5109999 H 7.2959999 L 5.3980001,5.9550001 H 1.1709998 Z"
         style="fill-rule:evenodd;stroke-width:0.264594"
         id="path7782" />
    </clipPath>
    <clipPath
       clipPathUnits="userSpaceOnUse"
       id="clipPath10004">
      <path
         d="m 4.2340001,2.242 c 0,0 1.7679998,0 2.2079999,0.119 C 6.6864703,2.427454 6.8770096,2.6191364 6.9419999,2.8640001 7.06,3.308 7.06,4.2329999 7.06,4.2329999 c 0,0 0,0.9260001 -0.1180001,1.3690001 C 6.8770101,5.8468636 6.6864703,6.0385459 6.442,6.1049999 c -0.441,0.119 -2.2079999,0.119 -2.2079999,0.119 0,0 -1.7680001,0 -2.2080001,-0.119 C 1.7815296,6.0385459 1.5909904,5.8468636 1.526,5.602 1.408,5.1580001 1.408,4.2329999 1.408,4.2329999 c 0,0 0,-0.9249999 0.118,-1.3689998 C 1.5908112,2.6193894 1.7809146,2.4277621 2.025,2.361 2.466,2.242 4.2340001,2.242 4.2340001,2.242 Z"
         fill-rule="evenodd"
         id="path10006"
         style="stroke-width:1" />
    </clipPath>
    <clipPath
       clipPathUnits="userSpaceOnUse"
       id="clipPath10791">
      <path
         d="m 4.2340003,2.242 c 0,0 1.7679999,0 2.208,0.119 0.2444703,0.066454 0.4350096,0.2581364 0.5000001,0.5030001 0.1179998,0.4439999 0.1179998,1.3689998 0.1179998,1.3689998 0,0 0,0.9260001 -0.1179998,1.3690001 -0.06499,0.2448636 -0.2555298,0.4365459 -0.5000001,0.5029999 -0.441,0.119 -2.208,0.119 -2.208,0.119 0,0 -1.7680003,0 -2.2080003,-0.119 C 1.7815296,6.0385459 1.5909904,5.8468636 1.526,5.602 1.408,5.1580001 1.408,4.2329999 1.408,4.2329999 c 0,0 0,-0.9249999 0.118,-1.3689998 C 1.5908112,2.6193894 1.7809146,2.4277621 2.025,2.361 2.466,2.242 4.2340003,2.242 4.2340003,2.242 Z"
         fill-rule="evenodd"
         id="path10793"
         style="stroke-width:1" />
    </clipPath>
    <clipPath
       clipPathUnits="userSpaceOnUse"
       id="clipPath11655">
      <path
         d="m 4.2340001,1.536 c 1.497,0 2.698,1.2140001 2.698,2.6980001 0,1.484 -1.2149999,2.6969998 -2.698,2.6969998 C 2.751,6.9309999 1.536,5.7169999 1.536,4.2329999 1.536,2.7489999 2.7500001,1.536 4.2340001,1.536 Z"
         fill-rule="evenodd"
         id="path11657"
         style="stroke-width:1" />
    </clipPath>
    <clipPath
       clipPathUnits="userSpaceOnUse"
       id="clipPath12454">
      <path
         d="m 4.5050002,2.417 c 0.8751107,0.00206 1.6074443,0.6644816 1.697,1.535 0.065,-0.014 0.1310001,-0.021001 0.1970001,-0.021001 0.5223301,0.00164 0.945353,0.4246701 0.9470001,0.9470001 -0.00164,0.52233 -0.42467,0.945353 -0.9470001,0.9469998 h -1.893 C 4.4018459,5.8244435 4.3175471,5.7401532 4.3170002,5.6359993 V 2.606 C 4.3175559,2.5018455 4.4018462,2.4175468 4.5060003,2.417 Z"
         fill-rule="evenodd"
         id="path12456"
         style="stroke-width:1" />
    </clipPath>
  </defs>
  <path
     style="opacity:1;fill:none;stroke:currentColor;stroke-opacity:1;stroke-width:1.058375;stroke-miterlimit:4;stroke-dasharray:none"
     xlink:href="#path2543"
     id="path6380"
     d="M 1.0585938,0 C 0.47159375,0 0,0.47259375 0,1.0585938 v 6.3496093 c 0,0.586 0.47259375,1.0585938 1.0585938,1.0585938 h 6.3496093 c 0.586,0 1.0585938,-0.4725938 1.0585938,-1.0585938 V 1.0585938 C 8.4677969,0.47259375 7.9942031,0 7.4082031,0 Z"
     clip-path="url(#clipPath6439)" />
  <path
     d="M 5.799,1.723 H 5.8 C 5.895,1.715 5.959,1.774 5.968,1.869 L 5.972,1.938 V 5.431 C 5.972,5.558 5.954,5.683 5.898,5.799 5.81,5.979 5.666,6.093 5.474,6.147 5.367,6.178 5.259,6.194 5.148,6.199 4.8604955,6.2151851 4.6060744,6.0143941 4.555,5.731 4.51,5.478 4.639,5.225 4.871,5.114 4.97,5.065 5.075,5.038 5.182,5.015 L 5.528,4.942 C 5.612,4.923 5.667,4.872 5.684,4.784 5.688,4.765 5.69,4.745 5.69,4.725 L 5.689,3.064 C 5.689,3.045 5.686,3.026 5.681,3.008 5.669,2.962 5.635,2.933 5.588,2.936 5.541,2.939 5.491,2.947 5.443,2.956 L 4.747,3.096 4.037,3.239 3.618,3.324 C 3.519,3.352 3.489,3.39 3.485,3.478 L 3.484,5.9 C 3.484,6.028 3.47,6.155 3.418,6.274 3.338919,6.4606087 3.1773199,6.5996504 2.981,6.65 2.8738769,6.6808915 2.7634049,6.6986879 2.652,6.703 2.3650172,6.7194111 2.1122154,6.5158733 2.067,6.232 2.0179678,5.9639904 2.1654606,5.6987549 2.419,5.599 2.528,5.553 2.642,5.528 2.757,5.504 L 3.02,5.45 C 3.1284525,5.4360584 3.2080579,5.3412278 3.203,5.232 V 2.476 C 3.2028393,2.4379512 3.2072033,2.4000183 3.216,2.363 3.237,2.276 3.299,2.226 3.382,2.205 L 3.618,2.154 4.289,2.019 4.982,1.878 5.595,1.756 5.798,1.724 Z"
     fill-rule="evenodd"
     id="path12586" />
</svg>
