<?xml version="1.0" encoding="UTF-8" standalone="no"?>
<svg
   width="32"
   height="32"
   viewBox="0 0 8.467 8.467"
   fill="currentColor"
   version="1.1"
   id="svg51"
   xmlns:xlink="http://www.w3.org/1999/xlink"
   xmlns="http://www.w3.org/2000/svg"
   xmlns:svg="http://www.w3.org/2000/svg">
  <defs
     id="defs55">
    <clipPath
       clipPathUnits="userSpaceOnUse"
       id="clipPath6439">
      <path
         d="M 1.059,0 C 0.47200001,0 0,0.47200001 0,1.058 v 6.35 c 0,0.586 0.47200001,1.0580001 1.058,1.0580001 h 6.35 C 7.994,8.4660001 8.4660001,7.994 8.4660001,7.408 V 1.058 C 8.467,0.47200001 7.9949999,0 7.4089999,0 Z"
         fill-rule="evenodd"
         id="path6441"
         style="opacity:0.334956;stroke-width:1" />
    </clipPath>
    <clipPath
       clipPathUnits="userSpaceOnUse"
       id="clipPath7780">
      <path
         d="M 3.0689996,2.5109999 H 7.2959999 L 5.3980001,5.9550001 H 1.1709998 Z"
         style="fill-rule:evenodd;stroke-width:0.264594"
         id="path7782" />
    </clipPath>
  </defs>
  <path
     style="fill-rule:evenodd;stroke-width:1.058375;fill:none;stroke:currentColor;stroke-opacity:1;stroke-miterlimit:4;stroke-dasharray:none;opacity:1"
     xlink:href="#path2576"
     id="path6751"
     d="M 3.0683594,2.5117188 1.171875,5.9550781 H 5.3984375 L 7.296875,2.5117188 Z"
     clip-path="url(#clipPath7780)" />
  <path
     style="opacity:1;fill:none;stroke:currentColor;stroke-opacity:1;stroke-width:1.058375;stroke-miterlimit:4;stroke-dasharray:none"
     xlink:href="#path2543"
     id="path6380"
     d="M 1.0585938,0 C 0.47159375,0 0,0.47259375 0,1.0585938 v 6.3496093 c 0,0.586 0.47259375,1.0585938 1.0585938,1.0585938 h 6.3496093 c 0.586,0 1.0585938,-0.4725938 1.0585938,-1.0585938 V 1.0585938 C 8.4677969,0.47259375 7.9942031,0 7.4082031,0 Z"
     clip-path="url(#clipPath6439)" />
</svg>
