<svg xmlns="http://www.w3.org/2000/svg" width="32" height="32" viewBox="0 0 8.467 8.467" fill="currentColor"  xmlns:v="https://vecta.io/nano"><path d="M1.058 0C.472 0 0 .472 0 1.059v6.35c0 .586.472 1.058 1.058 1.058h6.35c.586 0 1.058-.472 1.058-1.058v-6.35C8.467.472 7.995 0 7.408 0zm3.447 2.417a1.71 1.71 0 0 1 1.697 1.535c.065-.014.131-.021.197-.021a.95.95 0 0 1 .947.947.95.95 0 0 1-.947.947H4.506a.19.19 0 0 1-.189-.189v-3.03a.19.19 0 0 1 .189-.189zm-.757.378a.19.19 0 0 1 .189.19v2.651a.19.19 0 0 1-.189.189.19.19 0 0 1-.189-.189V2.985a.19.19 0 0 1 .19-.19zm-1.515.758a.19.19 0 0 1 .19.19v1.893a.19.19 0 0 1-.189.189.19.19 0 0 1-.189-.189V3.743a.19.19 0 0 1 .189-.19zm.758 0a.19.19 0 0 1 .189.19v1.893a.19.19 0 0 1-.189.189.19.19 0 0 1-.189-.189V3.743a.19.19 0 0 1 .19-.19zm-1.515.568a.19.19 0 0 1 .19.19v1.136a.19.19 0 0 1-.189.189.19.19 0 0 1-.189-.189V4.311a.19.19 0 0 1 .189-.19z" fill-rule="evenodd"/></svg>