<?xml version="1.0" encoding="UTF-8" standalone="no"?>
<svg
   width="32"
   height="32"
   viewBox="0 0 8.467 8.467"
   fill="currentColor"
   version="1.1"
   id="svg51"
   sodipodi:docname="spotify-notfound.svg"
   inkscape:version="1.1 (c4e8f9ed74, 2021-05-24)"
   xmlns:inkscape="http://www.inkscape.org/namespaces/inkscape"
   xmlns:sodipodi="http://sodipodi.sourceforge.net/DTD/sodipodi-0.dtd"
   xmlns:xlink="http://www.w3.org/1999/xlink"
   xmlns="http://www.w3.org/2000/svg"
   xmlns:svg="http://www.w3.org/2000/svg">
  <sodipodi:namedview
     id="namedview13148"
     pagecolor="#505050"
     bordercolor="#eeeeee"
     borderopacity="1"
     inkscape:pageshadow="0"
     inkscape:pageopacity="0"
     inkscape:pagecheckerboard="0"
     showgrid="false"
     inkscape:zoom="27.28125"
     inkscape:cx="16"
     inkscape:cy="16"
     inkscape:window-width="2532"
     inkscape:window-height="1412"
     inkscape:window-x="12"
     inkscape:window-y="12"
     inkscape:window-maximized="1"
     inkscape:current-layer="svg51" />
  <defs
     id="defs55">
    <clipPath
       clipPathUnits="userSpaceOnUse"
       id="clipPath6439">
      <path
         d="M 1.059,0 C 0.47200001,0 0,0.47200001 0,1.058 v 6.35 c 0,0.586 0.47200001,1.0580001 1.058,1.0580001 h 6.35 C 7.994,8.4660001 8.4660001,7.994 8.4660001,7.408 V 1.058 C 8.467,0.47200001 7.9949999,0 7.4089999,0 Z"
         fill-rule="evenodd"
         id="path6441"
         style="opacity:0.334956;stroke-width:1" />
    </clipPath>
    <clipPath
       clipPathUnits="userSpaceOnUse"
       id="clipPath7780">
      <path
         d="M 3.0689996,2.5109999 H 7.2959999 L 5.3980001,5.9550001 H 1.1709998 Z"
         style="fill-rule:evenodd;stroke-width:0.264594"
         id="path7782" />
    </clipPath>
    <clipPath
       clipPathUnits="userSpaceOnUse"
       id="clipPath10004">
      <path
         d="m 4.2340001,2.242 c 0,0 1.7679998,0 2.2079999,0.119 C 6.6864703,2.427454 6.8770096,2.6191364 6.9419999,2.8640001 7.06,3.308 7.06,4.2329999 7.06,4.2329999 c 0,0 0,0.9260001 -0.1180001,1.3690001 C 6.8770101,5.8468636 6.6864703,6.0385459 6.442,6.1049999 c -0.441,0.119 -2.2079999,0.119 -2.2079999,0.119 0,0 -1.7680001,0 -2.2080001,-0.119 C 1.7815296,6.0385459 1.5909904,5.8468636 1.526,5.602 1.408,5.1580001 1.408,4.2329999 1.408,4.2329999 c 0,0 0,-0.9249999 0.118,-1.3689998 C 1.5908112,2.6193894 1.7809146,2.4277621 2.025,2.361 2.466,2.242 4.2340001,2.242 4.2340001,2.242 Z"
         fill-rule="evenodd"
         id="path10006"
         style="stroke-width:1" />
    </clipPath>
    <clipPath
       clipPathUnits="userSpaceOnUse"
       id="clipPath10791">
      <path
         d="m 4.2340003,2.242 c 0,0 1.7679999,0 2.208,0.119 0.2444703,0.066454 0.4350096,0.2581364 0.5000001,0.5030001 0.1179998,0.4439999 0.1179998,1.3689998 0.1179998,1.3689998 0,0 0,0.9260001 -0.1179998,1.3690001 -0.06499,0.2448636 -0.2555298,0.4365459 -0.5000001,0.5029999 -0.441,0.119 -2.208,0.119 -2.208,0.119 0,0 -1.7680003,0 -2.2080003,-0.119 C 1.7815296,6.0385459 1.5909904,5.8468636 1.526,5.602 1.408,5.1580001 1.408,4.2329999 1.408,4.2329999 c 0,0 0,-0.9249999 0.118,-1.3689998 C 1.5908112,2.6193894 1.7809146,2.4277621 2.025,2.361 2.466,2.242 4.2340003,2.242 4.2340003,2.242 Z"
         fill-rule="evenodd"
         id="path10793"
         style="stroke-width:1" />
    </clipPath>
    <clipPath
       clipPathUnits="userSpaceOnUse"
       id="clipPath11655">
      <path
         d="m 4.2340001,1.536 c 1.497,0 2.698,1.2140001 2.698,2.6980001 0,1.484 -1.2149999,2.6969998 -2.698,2.6969998 C 2.751,6.9309999 1.536,5.7169999 1.536,4.2329999 1.536,2.7489999 2.7500001,1.536 4.2340001,1.536 Z"
         fill-rule="evenodd"
         id="path11657"
         style="stroke-width:1" />
    </clipPath>
  </defs>
  <path
     style="opacity:1;fill:none;stroke:currentColor;stroke-opacity:1;stroke-width:1.058375;stroke-miterlimit:4;stroke-dasharray:none"
     xlink:href="#path2543"
     id="path6380"
     d="M 1.0585938,0 C 0.47159375,0 0,0.47259375 0,1.0585938 v 6.3496093 c 0,0.586 0.47259375,1.0585938 1.0585938,1.0585938 h 6.3496093 c 0.586,0 1.0585938,-0.4725938 1.0585938,-1.0585938 V 1.0585938 C 8.4677969,0.47259375 7.9942031,0 7.4082031,0 Z"
     clip-path="url(#clipPath6439)" />
  <path
     d="M 3.8981233,3.1891264 C 3.5025642,3.1899681 3.1263622,3.2396234 2.8242224,3.3288346 2.722387,3.3633408 2.6542161,3.4761172 2.6878807,3.5897353 2.7215453,3.6915707 2.8351634,3.7597415 2.9487814,3.7260769 3.6414307,3.5106234 4.8558813,3.5560706 5.5830368,3.9869776 5.6848722,4.0433658 5.8212139,4.0097012 5.8776021,3.9297478 5.9339903,3.8279123 5.9003257,3.6915707 5.7984903,3.6351825 5.2733224,3.3229433 4.5579496,3.1882848 3.8981233,3.1891264 Z M 3.946937,3.9625708 C 3.6132734,3.9524579 3.2801041,3.9950622 2.9597224,4.088813 2.868828,4.1115366 2.8233808,4.2142137 2.8461044,4.3051081 c 0.022724,0.090895 0.1254006,0.1363417 0.2154535,0.1136181 0.757535,-0.2188807 1.5712006,-0.124903 2.258895,0.2609007 0.079953,0.056388 0.1817889,0.022724 0.2390187,-0.056388 V 4.622397 C 5.6158598,4.5432852 5.5821952,4.4296672 5.5140244,4.3951609 5.0738597,4.1258441 4.5099775,3.9760366 3.946937,3.9625708 Z m 0.00168,0.7406213 C 3.6591046,4.6981424 3.3519151,4.731807 3.0287349,4.8041859 2.960564,4.8269095 2.9041758,4.8950803 2.9268994,4.9750338 2.949623,5.0432046 3.0177939,5.0995928 3.0969057,5.0768692 3.8913904,4.8950803 4.561316,4.9632512 5.0949,5.2923227 5.1630709,5.3377699 5.2421827,5.3150463 5.2876299,5.2468755 5.3212945,5.1787046 5.3103535,5.0878102 5.2304001,5.0541456 4.8617726,4.8269095 4.4308657,4.7116082 3.9486202,4.7031921 Z"
     fill-rule="evenodd"
     id="path10864"
     style="stroke-width:0.841615" />
  <path
     xlink:href="#path10864-6"
     id="path11516"
     d="m 4.234375,1.5351562 c -1.484,0 -2.6992188,1.2132657 -2.6992188,2.6972657 0,1.484 1.2162188,2.6992187 2.6992188,2.6992187 1.4830001,0 2.6972656,-1.2132656 2.6972656,-2.6972656 0,-1.484 -1.2002655,-2.6992188 -2.6972656,-2.6992188 z"
     style="fill:none;stroke:currentColor;stroke-opacity:1;stroke-width:1.058375;stroke-miterlimit:4;stroke-dasharray:none"
     clip-path="url(#clipPath11655)" />
</svg>
