<?xml version="1.0" encoding="UTF-8" standalone="no"?>
<svg
   width="32"
   height="32"
   viewBox="0 0 8.467 8.467"
   fill="currentColor"
   version="1.1"
   id="svg51"
   xmlns:xlink="http://www.w3.org/1999/xlink"
   xmlns="http://www.w3.org/2000/svg"
   xmlns:svg="http://www.w3.org/2000/svg">
  <defs
     id="defs55">
    <clipPath
       clipPathUnits="userSpaceOnUse"
       id="clipPath6439">
      <path
         d="M 1.059,0 C 0.47200001,0 0,0.47200001 0,1.058 v 6.35 c 0,0.586 0.47200001,1.0580001 1.058,1.0580001 h 6.35 C 7.994,8.4660001 8.4660001,7.994 8.4660001,7.408 V 1.058 C 8.467,0.47200001 7.9949999,0 7.4089999,0 Z"
         fill-rule="evenodd"
         id="path6441"
         style="opacity:0.334956;stroke-width:1" />
    </clipPath>
    <clipPath
       clipPathUnits="userSpaceOnUse"
       id="clipPath7780">
      <path
         d="M 3.0689996,2.5109999 H 7.2959999 L 5.3980001,5.9550001 H 1.1709998 Z"
         style="fill-rule:evenodd;stroke-width:0.264594"
         id="path7782" />
    </clipPath>
  </defs>
  <path
     style="opacity:1;fill:none;stroke:currentColor;stroke-opacity:1;stroke-width:1.058375;stroke-miterlimit:4;stroke-dasharray:none"
     xlink:href="#path2543"
     id="path6380"
     d="M 1.0585938,0 C 0.47159375,0 0,0.47259375 0,1.0585938 v 6.3496093 c 0,0.586 0.47259375,1.0585938 1.0585938,1.0585938 h 6.3496093 c 0.586,0 1.0585938,-0.4725938 1.0585938,-1.0585938 V 1.0585938 C 8.4677969,0.47259375 7.9942031,0 7.4082031,0 Z"
     clip-path="url(#clipPath6439)" />
  <path
     d="m 4.234,2.242 c 0,0 1.768,0 2.208,0.119 0.2444704,0.066454 0.4350096,0.2581364 0.5,0.503 0.118,0.444 0.118,1.369 0.118,1.369 0,0 0,0.926 -0.118,1.369 -0.06499,0.2448636 -0.2555296,0.4365459 -0.5,0.503 -0.441,0.119 -2.208,0.119 -2.208,0.119 0,0 -1.768,0 -2.208,-0.119 C 1.7815296,6.0385459 1.5909904,5.8468636 1.526,5.602 1.408,5.158 1.408,4.233 1.408,4.233 c 0,0 0,-0.925 0.118,-1.369 C 1.5908112,2.6193894 1.7809146,2.4277621 2.025,2.361 2.466,2.242 4.234,2.242 4.234,2.242 Z M 3.656,3.393 v 1.681 l 1.477,-0.84 z"
     fill-rule="evenodd"
     id="path8085" />
</svg>
